<svg version="1.1" id="Layer_1" xmlns="http://www.w3.org/2000/svg" x="0" y="0" viewBox="0 0 360 21" xml:space="preserve"><style>.st0{fill:#711984}</style><path class="st0" d="M53.8 15.8c.2 3.1 2.6 5.2 6.7 5.2 3.6 0 6.1-1.8 6.1-4.7 0-3.5-2.7-4.1-5.1-4.7-2-.4-4-.5-4-1.8 0-1.1 1-1.6 2.5-1.6 1.6 0 2.6.6 2.8 2.2h3.5c-.3-3-2.4-4.9-6.2-4.9-3.3 0-5.9 1.5-5.9 4.7s2.5 3.9 5.1 4.5c2 .4 3.8.5 3.8 2 0 1-1 1.7-2.6 1.7-1.7 0-2.9-.8-3.1-2.4h-3.6zm-48 4.8h3.8l2.5-11c.3-1.5.6-3.7.6-3.7h.1s.4 2.2.7 3.7l2.4 11h3.8L25.4 0h-4l-2.5 10.2-1 4.5h-.1s-.5-2.6-.9-4.4L14.7 0h-3.9L8.6 10.3c-.4 1.8-.9 4.4-.9 4.4h-.1s-.5-2.7-.9-4.5L4.2 0H0l5.8 20.6zm138.6-4.8c.2 3.1 2.6 5.2 6.7 5.2 3.6 0 6.1-1.8 6.1-4.8 0-3.5-2.7-4.1-5.1-4.7-2-.4-4-.5-4-1.8 0-1.1 1-1.6 2.5-1.6 1.6 0 2.6.6 2.8 2.2h3.5c-.3-3-2.4-4.9-6.2-4.9-3.3 0-5.9 1.5-5.9 4.7s2.5 3.9 5.1 4.5c2 .4 3.8.5 3.8 2 0 1-1 1.7-2.6 1.7-1.7 0-2.9-.7-3.1-2.4h-3.6zm-5.5-10h-3.7v14.8h3.8v-7.2c0-3.1 1.8-4.5 4.3-4.2h.1V5.8c-.2-.1-.5-.1-.9-.1-1.7 0-2.7.9-3.5 2.5h-.1V5.8zm-16.3 5.8c.3-1.9 1.3-3.2 3.3-3.2 1.7 0 2.9 1.3 3.1 3.2h-6.4zm-3.9 1.6c0 4.4 2.7 7.8 7.5 7.8 3.7 0 6-2.2 6.5-4.8H129c-.4 1.1-1.3 1.8-2.8 1.8-2.2 0-3.4-1.4-3.7-3.7H133c0-5.3-2.5-8.9-7.1-8.9-4.3 0-7.2 3.4-7.2 7.8zm-70.9 7.4h3.8V5.8h-3.8v14.8zm-6.9 0h3.8V0h-3.8v20.6zm6.9-17.1h3.8V0h-3.8v3.5zM33.9 20.6h3.8V0h-3.8v20.6zm-6.9 0h3.8V5.8H27v14.8zm0-17.1h3.8V0H27v3.5zm74.8 17.1h3.5l2-7.3c.3-1.2.7-2.6.7-2.6h.1s.3 1.4.6 2.6l1.9 7.3h3.5l4.3-14.8h-3.7l-1.8 6.8c-.3 1.2-.6 2.8-.6 2.8h-.3l-.7-2.8-1.9-6.8h-3.3l-1.8 6.8c-.3 1.2-.6 2.8-.6 2.8h-.1s-.3-1.6-.6-2.8l-1.7-6.8h-3.8l4.3 14.8zm-8.7-7.4c0 2.9-1.3 4.8-3.7 4.8-2.4 0-3.6-1.9-3.6-4.8s1.3-4.8 3.6-4.8c2.4 0 3.7 1.9 3.7 4.8zm-11.1 0c0 4.4 3.1 7.8 7.5 7.8 4.5 0 7.5-3.4 7.5-7.8s-3.1-7.8-7.5-7.8C85 5.4 82 8.8 82 13.2zM69 0v3.5h6v17.1h4.1V3.5h6V0H69zm175.3 5.8h-3.7v14.8h3.8v-8.4c0-2 1.2-3.4 2.9-3.4 1.6 0 2.5 1.1 2.5 2.7v9.1h3.8V11c0-3.2-2-5.5-5-5.5-2 0-3.3.8-4.3 2.4h-.1V5.8zm-9.6 7.4c0 2.9-1.3 4.8-3.7 4.8-2.4 0-3.6-1.9-3.6-4.8s1.3-4.8 3.6-4.8c2.4 0 3.7 1.9 3.7 4.8zm-11.2 0c0 4.4 3.1 7.8 7.5 7.8 4.5 0 7.5-3.4 7.5-7.8s-3.1-7.8-7.5-7.8-7.5 3.4-7.5 7.8zm-14.2 2.6c.2 3.1 2.6 5.2 6.7 5.2 3.6 0 6.1-1.8 6.1-4.7 0-3.5-2.7-4.1-5.1-4.7-2-.4-4-.5-4-1.8 0-1.1 1-1.6 2.5-1.6 1.6 0 2.6.6 2.8 2.2h3.5c-.3-3-2.4-4.9-6.2-4.9-3.3 0-5.9 1.5-5.9 4.7s2.5 3.9 5.1 4.5c2 .4 3.8.5 3.8 2 0 1-1 1.7-2.6 1.7-1.7 0-2.9-.7-3.1-2.4h-3.6zm-9.7-7.4h2v8.7c0 2.8 2.1 3.5 3.9 3.5 1.5 0 2.4-.1 2.4-.1v-2.9h-1.1c-.8 0-1.4-.4-1.4-1.5V8.4h2.5V5.8h-2.5V1.2h-3.7v4.6h-2v2.6zm-5.2 7c0 1.4-1.2 2.8-3.4 2.8-1.3 0-2.2-.5-2.2-1.9s1-1.8 3-2.3c1-.2 2-.5 2.7-.9v2.3zm0 3.5c.1.7.2 1.4.5 1.6h3.7v-.1c-.3-.3-.5-.9-.5-2v-7.5c0-3.5-1.7-5.4-6.1-5.4-4.2 0-6.1 2.3-6.2 4.9h3.4c.1-1.4 1-2.1 2.8-2.1 1.6 0 2.4.7 2.4 1.8s-1.1 1.3-3.5 1.7c-3.2.5-5.8 1.5-5.8 4.7 0 2.9 2.1 4.5 5 4.5 2.4-.1 3.5-.9 4.3-2.1zM160.8 0h4.2l2.6 10.2c.4 1.8.9 4.5.9 4.5h.1s.5-2.6.9-4.4L171.6 0h3.9l2.2 10.3c.4 1.8.9 4.4.9 4.4h.1l1-4.5L182.2 0h4l-5.7 20.6h-3.8l-2.4-11c-.3-1.5-.7-3.7-.7-3.7h-.1s-.3 2.2-.6 3.7l-2.5 11h-3.8L160.8 0zM322.1 10.3h6.7V0h-6.7v10.3zm-20.1 0h6.7V0H302v10.3zm10 10.3h6.7V0H312v20.6zm31.3 0h6.7V10.3h-6.7v10.3zm10 0h6.7V0h-6.7v20.6zm-20.1 0h6.7V0h-6.7v20.6zm-52.4 0h6.7V10.3h-6.7v10.3zm10 0h6.7V0h-6.7v20.6zm-20 0h6.7V0h-6.7v20.6z"/></svg>
